<svg width="32" height="32" viewBox="0 0 32 32" fill="none" xmlns="http://www.w3.org/2000/svg">
<rect width="32" height="32" rx="16" fill="#272727"/>
<path d="M16 25C20.9705 25 25 20.9705 25 16C25 11.0294 20.9705 7 16 7C11.0294 7 7 11.0294 7 16C7 20.9705 11.0294 25 16 25Z" stroke="white" stroke-width="1.35"/>
<path d="M24.9999 17.138C24.1658 16.9816 23.3079 16.9 22.4324 16.9C17.6153 16.9 13.3309 19.3683 10.6 23.2" stroke="white" stroke-width="1.35" stroke-linejoin="round"/>
<path d="M22.3 9.69995C19.4834 13.0006 15.2511 15.0999 10.5187 15.0999C9.30793 15.0999 8.12993 14.9625 7 14.7028" stroke="white" stroke-width="1.35" stroke-linejoin="round"/>
<path d="M18.356 25C18.5815 23.9074 18.7 22.7758 18.7 21.6166C18.7 15.9322 15.8509 10.9118 11.5 7.90002" stroke="white" stroke-width="1.35" stroke-linejoin="round"/>
</svg>
