<svg width="1376" height="593" viewBox="0 0 1376 593" fill="none" xmlns="http://www.w3.org/2000/svg">
<path d="M104.39 107.737C110.379 110.959 114.649 122.506 116.036 127.876V150.03V182.252L122.691 208.433L145.983 229.243L200.054 280.934L231.665 295.031H248.302L268.267 304.429L280.745 320.54L253.293 352.763V366.86V397.069L260.78 413.852L298.214 443.389L301.541 484.338V550.797L322.338 583.691L341.471 591.747C342.58 587.272 345.464 574.024 348.125 556.839C351.453 535.357 331.488 534.015 395.542 478.297C459.595 422.579 456.268 407.81 458.763 386.999C460.76 370.351 450.722 357.238 445.453 352.763H424.657C419.943 349.854 408.519 342.425 400.533 335.98C392.547 329.536 378.35 317.632 372.249 312.485H322.338C317.901 310.918 306.033 304.026 294.054 288.989C282.076 273.952 258.562 268.85 248.302 268.179L243.311 264.822V229.243L309.028 224.544L356.444 186.951L416.338 131.904C419.388 127.205 425.322 117.001 424.657 113.779C423.991 110.557 414.952 103.038 410.515 99.6818C405.247 99.0105 391.881 98.0706 380.568 99.6818C369.255 101.293 359.772 92.2974 356.444 87.5983C354.226 86.0319 349.124 84.2418 346.462 89.6122C343.8 94.9827 344.243 107.961 344.798 113.779C338.143 119.821 337.311 117.807 318.178 117.807C304.459 117.807 292.945 109.751 288.231 103.038C261.612 73.501 288.231 74.1723 293.223 62.7601C292.557 46.6492 271.871 43.0686 261.612 43.2922C254.957 43.2922 239.817 41.9496 232.497 36.5793C223.346 29.8664 206.709 29.8662 195.063 28.5236C183.417 27.1809 121.859 29.1949 116.036 33.894C110.213 38.5931 49.4869 43.2922 35.3453 43.2922C24.032 43.2922 9.55754 57.6134 3.73449 64.7739C0.129757 82.4516 -2.75403 113.779 14.5487 97.6678C36.1771 77.5287 52.8144 85.584 57.8055 82.8988C61.7985 80.7506 78.8794 89.6118 86.9207 94.3109C90.2482 97.4437 98.4004 104.515 104.39 107.737Z" fill="#333333" stroke="white" stroke-width="1.09335" stroke-dasharray="6.65 6.65"/>
<path d="M813.136 292.345L821.455 295.702L832.269 305.772L864.712 334.638L884.677 340.679L900.482 331.952L917.119 315.841L914.624 305.772L900.482 291.674L884.677 279.591L874.694 264.151L878.022 255.424L884.677 251.396L896.323 266.836L914.624 271.535L943.739 276.234L958.712 288.318L980.341 311.813H993.65L1007.79 303.758L1022.77 285.632L1032.75 274.22L1046.06 266.836H1056.04L1066.02 276.234L1087.65 299.059L1110.11 315.841L1132.57 323.225L1144.22 315.841L1149.21 299.059V276.234L1158.36 260.123L1177.49 241.326V226.558L1181.65 221.859H1219.09L1234.06 216.488L1260.68 195.007L1279.81 176.881L1285.63 157.414V118.478L1294.78 114.45H1312.25L1332.22 108.408L1349.69 94.9824L1362.17 80.2137L1360.5 62.7599L1349.69 56.0468H1304.77H1285.63L1265.67 44.6347L1254.86 34.5651H1219.09H1181.65H1155.03L1147.54 30.5373L1128.41 13.0835L1111.77 1H1075.17H1050.22L1031.92 5.02782L1017.77 11.7408L1001.97 25.1669L992.819 34.5651H980.341H950.394L938.748 39.2643L909.632 64.7738H813.136L810.641 62.7599L787.349 46.6486L769.88 34.5651H748.251L724.959 39.2643L716.64 46.6486L700.003 59.4034L688.357 72.1581L685.03 84.2416L690.853 97.6676H700.003L712.481 86.2555L729.95 67.459H741.596L752.41 75.5146L748.251 84.2416L729.95 97.6676V106.395L724.959 117.135L712.481 118.478H685.03L674.215 121.163L662.569 133.247L658.41 148.015V163.455L651.755 165.469H639.277L629.295 170.84L615.985 181.58L610.162 190.307L608.498 203.733L615.985 215.817L633.454 221.859L646.764 219.845L655.083 210.447L662.569 197.02L674.215 192.321L682.534 195.678L707.49 215.817L726.623 219.845L741.596 215.817L752.41 205.747L765.72 201.72L784.021 205.747L807.313 224.544L813.136 233.942L803.154 248.039L784.021 258.109H716.64L700.003 248.039L685.03 239.984L664.233 237.97H633.454L624.304 239.984L608.498 248.039L584.374 270.192L576.056 282.947V340.008L633.454 396.397H685.03L695.844 401.768V449.43L726.623 486.352V537.371L735.773 556.167L759.897 568.251H787.349L807.313 552.14L823.119 537.371L828.11 528.644L833.101 505.148L828.11 459.5L833.101 438.018L845.579 425.935L853.898 408.481L869.703 388.342V370.217L803.154 309.128L800.658 301.072L806.481 292.345H813.136Z" fill="#333333" stroke="white" stroke-width="1.09335" stroke-dasharray="6.65 6.65"/>
<path d="M647.596 109.751V92.2973V88.2694L642.605 83.5703L636.782 85.5842L630.959 96.9964L627.631 106.395L625.968 117.135L630.959 124.52L636.782 126.534L642.605 119.821L647.596 109.751Z" fill="#333333" stroke="white" stroke-width="1.09335" stroke-dasharray="6.65 6.65"/>
<path d="M609.33 105.724C606.557 107.066 600.845 110.02 600.18 111.094C599.348 112.437 596.852 116.464 596.852 119.15C596.852 121.298 601.289 123.178 603.507 123.849L611.826 122.506L617.649 119.15L619.313 112.437L617.649 107.738L610.162 105.724" stroke="white" stroke-width="1.09335" stroke-dasharray="6.65 6.65"/>
<path d="M502.852 15.0976C495.531 16.7087 475.955 15.7689 467.082 15.0976H452.94L433.807 19.7967L425.489 25.8385L418.834 35.908L422.993 45.9776L442.126 61.4175L452.94 78.2001V99.0105L457.099 109.751L467.082 119.821L480.392 124.52L497.861 112.437L512.002 99.0105L521.153 84.9131L534.463 76.1862L544.445 64.1027L551.1 45.9776L544.445 28.5237L531.135 17.1115L521.153 15.0976C518.103 14.4263 510.172 13.4865 502.852 15.0976Z" fill="#333333" stroke="white" stroke-width="1.09335" stroke-dasharray="6.65 6.65"/>
<path d="M360.604 20.4673L348.126 18.4534H338.975L328.161 16.4395L312.356 18.4534L306.532 23.1525V31.8794L310.692 35.2359L314.851 41.949L323.17 45.3055L333.152 47.3194L348.126 47.9907H363.099L373.081 45.3055L375.577 39.9351L373.081 31.8794L366.427 24.4951L360.604 20.4673Z" fill="#333333" stroke="white" stroke-width="1.09335" stroke-dasharray="6.65 6.65"/>
<path d="M1289.79 180.909L1280.64 190.307H1278.98L1270.66 199.034L1269 208.432V218.502L1273.16 219.844L1280.64 215.145L1288.96 209.775L1294.78 203.062L1304.77 195.677C1306.99 192.992 1311.42 187.219 1311.42 185.608V179.566L1306.43 173.524L1300.61 174.867L1289.79 180.909Z" fill="#333333" stroke="white" stroke-width="1.09335" stroke-dasharray="6.65 6.65"/>
<path d="M1194.13 329.938L1191.63 340.679L1182.48 346.049H1176.66L1170.01 339.336L1172.5 326.582L1179.16 317.855L1184.98 314.498H1189.14L1194.13 320.54V329.938Z" fill="#333333" stroke="white" stroke-width="1.09335" stroke-dasharray="6.65 6.65"/>
<path d="M1262.34 423.921H1213.26L1198.29 427.277L1177.49 440.032L1161.69 464.87L1168.34 490.38L1189.97 510.519L1222.41 513.875H1249.86L1268.17 528.644L1293.12 533.343L1312.25 528.644L1323.07 513.875L1327.23 494.408V482.996L1323.07 464.87L1298.11 440.032L1276.48 423.921H1262.34Z" fill="#333333" stroke="white" stroke-width="1.09335" stroke-dasharray="6.65 6.65"/>
<path d="M1241.55 370.217H1224.91L1219.92 372.231L1214.93 374.245L1209.93 381.629V389.013L1214.93 393.041H1228.24H1241.55L1252.36 389.013L1257.35 381.629V374.245L1250.7 370.217H1241.55Z" fill="#333333" stroke="white" stroke-width="1.09335" stroke-dasharray="6.65 6.65"/>
<path d="M1125.92 352.763L1116.77 348.064L1110.11 347.393L1104.29 349.406V354.106L1109.28 362.161L1118.43 371.559L1130.08 380.958L1138.39 385.657L1146.71 388.342L1153.37 385.657V380.286L1149.21 374.916L1143.39 368.874L1134.24 360.819L1125.92 352.763Z" fill="#333333" stroke="white" stroke-width="1.09335" stroke-dasharray="6.65 6.65"/>
<path d="M866.376 462.856L861.384 465.541L862.216 466.212L857.225 470.911L851.402 477.624V485.68L853.066 489.036L851.402 497.763L855.561 503.134L859.721 505.819L866.376 504.476C867.762 503.134 870.535 500.314 870.535 499.777C870.535 499.106 875.526 494.407 875.526 493.735C875.526 493.198 878.299 489.484 879.685 487.694V480.981L882.181 470.911V466.883L879.685 461.513L873.862 459.499L869.703 461.513L866.376 462.856Z" fill="#333333" stroke="white" stroke-width="1.09335" stroke-dasharray="6.65 6.65"/>
<path d="M1370.48 491.052H1357.17L1353.01 491.723L1348.86 500.45V507.163L1351.35 510.52V515.219L1357.17 522.603L1362.17 529.316L1367.99 530.659L1372.15 527.302L1374.64 522.603V514.547V506.492L1373.81 500.45L1374.64 495.08L1370.48 491.052Z" fill="#333333" stroke="white" stroke-width="1.09335" stroke-dasharray="6.65 6.65"/>
<circle cx="1113" cy="271" r="15" fill="#1F1F1F"/>
<circle cx="974" cy="103" r="15" fill="#1F1F1F"/>
<circle cx="641" cy="289" r="15" fill="#1F1F1F"/>
<circle cx="1223" cy="459" r="15" fill="#1F1F1F"/>
<circle cx="168" cy="94" r="15" fill="#1F1F1F"/>
<circle cx="349" cy="458" r="15" fill="#1F1F1F"/>
<circle cx="293" cy="361" r="15" fill="#1F1F1F"/>
<circle cx="299" cy="176" r="15" fill="#1F1F1F"/>
<circle cx="189" cy="229" r="15" fill="#1F1F1F"/>
<circle cx="787" cy="90" r="15" fill="#1F1F1F"/>
<circle cx="518" cy="52" r="15" fill="#1F1F1F"/>
</svg>
