<svg width="392" height="225" viewBox="0 0 392 225" fill="none" xmlns="http://www.w3.org/2000/svg">
<path d="M281.901 196C281.901 201.951 281.296 206.306 280.2 209.41C279.114 212.49 277.574 214.268 275.714 215.219C273.825 216.186 271.416 216.396 268.413 215.946C265.413 215.495 261.945 214.405 258.028 212.911C254.751 211.661 251.212 210.149 247.416 208.527C246.68 208.212 245.934 207.894 245.179 207.572C240.541 205.597 235.563 203.519 230.318 201.627C219.832 197.845 208.224 194.79 196 194.79C183.776 194.79 172.168 197.845 161.682 201.627C156.437 203.519 151.459 205.597 146.821 207.572C146.066 207.894 145.32 208.213 144.584 208.527C140.788 210.149 137.249 211.661 133.972 212.911C130.055 214.405 126.587 215.495 123.587 215.946C120.584 216.396 118.175 216.186 116.286 215.219C114.426 214.268 112.886 212.49 111.8 209.41C110.704 206.306 110.099 201.951 110.099 196C110.099 148.558 148.558 110.099 196 110.099C243.442 110.099 281.901 148.558 281.901 196Z" stroke="white" stroke-width="2.41975" stroke-linejoin="bevel"/>
<path d="M305.763 196C305.763 203.632 305.029 208.782 303.738 212.051C302.483 215.229 300.806 216.418 298.849 216.649C296.666 216.907 293.743 216.034 289.966 214.052C286.241 212.098 281.947 209.211 277.098 205.79C275.49 204.655 273.824 203.463 272.103 202.232C263.505 196.084 253.541 188.958 242.593 183.035C229.439 175.918 214.725 170.454 199 170.454C183.281 170.454 168.197 175.915 154.493 183.022C143.552 188.697 133.389 195.48 124.447 201.447C122.201 202.946 120.031 204.394 117.946 205.76C112.727 209.178 108.057 212.069 103.981 214.028C99.8616 216.007 96.5808 216.915 94.0715 216.647C92.8572 216.518 91.8259 216.113 90.9355 215.403C90.0342 214.686 89.2032 213.597 88.4961 211.994C87.0634 208.748 86.2374 203.621 86.2374 196C86.2374 135.38 135.38 86.2374 196 86.2374C256.62 86.2374 305.763 135.38 305.763 196Z" stroke="white" stroke-width="3.09191" stroke-linejoin="bevel"/>
<path d="M332.01 196C332.01 205.486 331.058 211.451 329.456 214.839C328.676 216.49 327.806 217.386 326.951 217.849C326.111 218.304 325.06 218.461 323.668 218.205C320.746 217.668 316.88 215.421 312.016 211.664C307.219 207.959 301.726 203.009 295.568 197.399C294.993 196.875 294.411 196.345 293.825 195.81C281.912 184.947 267.741 172.026 252.006 161.659C235.497 150.782 217.076 142.584 197.5 142.584C177.927 142.584 159.321 150.78 142.537 161.651C126.782 171.856 112.459 184.537 100.311 195.293C99.5157 195.997 98.7294 196.694 97.9527 197.38C91.6093 202.988 85.9297 207.939 80.9591 211.644C75.9255 215.397 71.89 217.66 68.8141 218.203C67.338 218.463 66.2049 218.305 65.2954 217.833C64.3794 217.358 63.4697 216.451 62.6578 214.808C60.9888 211.433 59.9896 205.481 59.9896 196C59.9896 120.884 120.883 59.9897 196 59.9897C271.116 59.9897 332.01 120.884 332.01 196Z" stroke="white" stroke-width="3.83128" stroke-linejoin="bevel"/>
<path d="M363.03 196C363.03 207.67 361.873 214.82 359.96 218.703C359.035 220.58 358.036 221.482 357.1 221.892C356.164 222.303 354.924 222.381 353.198 221.878C349.603 220.833 344.869 217.565 338.951 212.398C333.11 207.299 326.426 200.637 318.933 193.165L318.812 193.044C303.907 178.181 285.938 160.262 265.819 146.061C245.653 131.827 223.082 121.148 199 121.148C174.926 121.148 151.985 131.821 131.268 146.044C111.095 159.893 92.7848 177.285 77.3708 191.925C76.9478 192.327 76.527 192.727 76.1084 193.124C68.243 200.593 61.1858 207.256 54.9982 212.355C48.7393 217.513 43.6722 220.807 39.7785 221.867C37.8927 222.381 36.4848 222.313 35.3993 221.869C34.3303 221.432 33.2503 220.499 32.266 218.642C30.2206 214.782 28.9697 207.661 28.9697 196C28.9697 103.752 103.752 28.9698 196 28.9698C288.248 28.9698 363.03 103.752 363.03 196Z" stroke="white" stroke-width="4.70508" stroke-linejoin="bevel"/>
<path d="M389.278 196C389.278 202.689 388.938 207.972 388.299 212.028C387.653 216.132 386.734 218.751 385.735 220.29C384.817 221.704 383.958 222.055 383.113 222.078C382.028 222.108 380.396 221.606 378.09 220.094C373.5 217.084 367.66 211.042 360.601 202.731C355.2 196.373 349.226 188.86 342.699 180.651C340.755 178.207 338.762 175.7 336.72 173.144C318.988 150.944 297.728 125.171 274.06 104.95C250.43 84.7596 224.027 69.7778 196 69.7778C167.973 69.7778 141.57 84.7596 117.94 104.95C94.2721 125.171 73.0123 150.944 55.2801 173.144C53.2382 175.7 51.2449 178.207 49.3005 180.652C42.7737 188.86 36.7994 196.374 31.3989 202.731C24.3397 211.042 18.5 217.084 13.9099 220.094C11.6038 221.606 9.97171 222.108 8.88748 222.078C8.04168 222.055 7.18293 221.704 6.26547 220.29C5.26617 218.751 4.34726 216.132 3.701 212.028C3.06219 207.972 2.72222 202.689 2.72222 196C2.72222 89.2556 89.2556 2.72222 196 2.72222C302.744 2.72222 389.278 89.2556 389.278 196Z" stroke="white" stroke-width="5.44444" stroke-linejoin="bevel"/>
</svg>
