<svg width="32" height="32" viewBox="0 0 32 32" fill="none" xmlns="http://www.w3.org/2000/svg">
<rect width="32" height="32" rx="16" fill="#272727"/>
<path d="M8 16C8 12.2288 8 10.3432 9.17157 9.17157C10.3432 8 12.2288 8 16 8C19.7712 8 21.6569 8 22.8285 9.17157C24 10.3432 24 12.2288 24 16C24 19.7712 24 21.6569 22.8285 22.8285C21.6569 24 19.7712 24 16 24C12.2288 24 10.3432 24 9.17157 22.8285C8 21.6569 8 19.7712 8 16Z" stroke="white" stroke-width="1.26316" stroke-linejoin="round"/>
<path d="M19.7894 16.0001C19.7894 18.0929 18.0928 19.7895 15.9999 19.7895C13.9071 19.7895 12.2104 18.0929 12.2104 16.0001C12.2104 13.9072 13.9071 12.2106 15.9999 12.2106C18.0928 12.2106 19.7894 13.9072 19.7894 16.0001Z" stroke="white" stroke-width="1.26316"/>
<path d="M20.6391 11.3684H20.6306" stroke="white" stroke-width="1.68421" stroke-linecap="round" stroke-linejoin="round"/>
</svg>
