<svg width="32" height="32" viewBox="0 0 32 32" fill="none" xmlns="http://www.w3.org/2000/svg">
<rect width="32" height="32" rx="16" fill="#272727"/>
<path d="M9.24997 13.7499H8.79997C7.95146 13.7499 7.5272 13.7499 7.2636 14.0135C7 14.2771 7 14.7013 7 15.5499V23.1997C7 24.0482 7 24.4725 7.2636 24.7361C7.5272 24.9997 7.95146 24.9997 8.79997 24.9997H9.24997C10.0985 24.9997 10.5227 24.9997 10.7863 24.7361C11.0499 24.4725 11.0499 24.0482 11.0499 23.1997V15.5499C11.0499 14.7013 11.0499 14.2771 10.7863 14.0135C10.5227 13.7499 10.0985 13.7499 9.24997 13.7499Z" stroke="white" stroke-width="1.34998"/>
<path d="M11.0499 9.02497C11.0499 10.1433 10.1433 11.0499 9.02497 11.0499C7.90661 11.0499 7 10.1433 7 9.02497C7 7.90661 7.90661 7 9.02497 7C10.1433 7 11.0499 7.90661 11.0499 9.02497Z" stroke="white" stroke-width="1.34998"/>
<path d="M16.2932 13.7499H15.5499C14.7013 13.7499 14.2771 13.7499 14.0135 14.0135C13.7499 14.2771 13.7499 14.7013 13.7499 15.5499V23.1997C13.7499 24.0482 13.7499 24.4725 14.0135 24.7361C14.2771 24.9997 14.7013 24.9997 15.5499 24.9997H15.9998C16.8484 24.9997 17.2726 24.9997 17.5362 24.7361C17.7998 24.4725 17.7998 24.0482 17.7998 23.1997L17.7999 20.0499C17.7999 18.5588 18.2751 17.3499 19.6789 17.3499C20.3807 17.3499 20.9498 17.9543 20.9498 18.6999V22.7498C20.9498 23.5983 20.9498 24.0226 21.2134 24.2862C21.4769 24.5498 21.9012 24.5498 22.7497 24.5498H23.1986C24.0469 24.5498 24.4711 24.5498 24.7347 24.2863C24.9983 24.0228 24.9984 23.5986 24.9985 22.7503L24.9998 17.8C24.9998 15.5634 22.8725 13.7501 20.7669 13.7501C19.5682 13.7501 18.4988 14.3377 17.7999 15.2565C17.7998 14.6894 17.7998 14.4059 17.6767 14.1954C17.5987 14.062 17.4876 13.9511 17.3543 13.8731C17.1438 13.7499 16.8603 13.7499 16.2932 13.7499Z" stroke="white" stroke-width="1.34998" stroke-linejoin="round"/>
</svg>
