<svg width="32" height="32" viewBox="0 0 32 32" fill="none" xmlns="http://www.w3.org/2000/svg">
<rect width="32" height="32" rx="16" fill="white"/>
<path d="M9.24997 13.75H8.79997C7.95146 13.75 7.5272 13.75 7.2636 14.0136C7 14.2772 7 14.7015 7 15.55V23.1999C7 24.0484 7 24.4726 7.2636 24.7362C7.5272 24.9998 7.95146 24.9998 8.79997 24.9998H9.24997C10.0985 24.9998 10.5227 24.9998 10.7863 24.7362C11.0499 24.4726 11.0499 24.0484 11.0499 23.1999V15.55C11.0499 14.7015 11.0499 14.2772 10.7863 14.0136C10.5227 13.75 10.0985 13.75 9.24997 13.75Z" stroke="#272727" stroke-width="1.34998"/>
<path d="M11.0499 9.02497C11.0499 10.1433 10.1433 11.0499 9.02497 11.0499C7.90661 11.0499 7 10.1433 7 9.02497C7 7.90661 7.90661 7 9.02497 7C10.1433 7 11.0499 7.90661 11.0499 9.02497Z" stroke="#272727" stroke-width="1.34998"/>
<path d="M16.2934 13.75H15.55C14.7015 13.75 14.2772 13.75 14.0136 14.0136C13.75 14.2772 13.75 14.7015 13.75 15.55V23.1999C13.75 24.0484 13.75 24.4726 14.0136 24.7362C14.2772 24.9998 14.7015 24.9998 15.55 24.9998H16C16.8485 24.9998 17.2727 24.9998 17.5363 24.7362C17.7999 24.4726 17.7999 24.0484 17.7999 23.1999L17.8 20.05C17.8 18.5589 18.2752 17.35 19.679 17.35C20.3808 17.35 20.9499 17.9545 20.9499 18.7V22.75C20.9499 23.5985 20.9499 24.0227 21.2135 24.2863C21.477 24.5499 21.9014 24.5499 22.7499 24.5499H23.1987C24.047 24.5499 24.4712 24.5499 24.7348 24.2864C24.9984 24.0229 24.9985 23.5987 24.9987 22.7504L24.9999 17.8001C24.9999 15.5635 22.8726 13.7502 20.767 13.7502C19.5683 13.7502 18.499 14.3378 17.8 15.2566C17.7999 14.6895 17.7999 14.406 17.6768 14.1955C17.5988 14.0622 17.4877 13.9512 17.3544 13.8732C17.1439 13.75 16.8604 13.75 16.2934 13.75Z" stroke="#272727" stroke-width="1.34998" stroke-linejoin="round"/>
</svg>
