<svg width="457" height="569" viewBox="0 0 457 569" fill="none" xmlns="http://www.w3.org/2000/svg">
<path d="M424.172 568.442H32.828C14.6976 568.442 0 553.745 0 535.614V72.25C0 56.3718 12.8718 43.5 28.75 43.5H35.75C47.7622 43.5 57.5 33.7622 57.5 21.75C57.5 9.73781 67.2378 0 79.25 0H424.172C442.302 0 457 14.6976 457 32.828V238.892C457 246.512 450.823 252.689 443.203 252.689C423.15 252.689 406.894 268.945 406.894 288.998V289.811C406.894 309.864 423.15 326.12 443.203 326.12C450.823 326.12 457 332.297 457 339.917V535.614C457 553.745 442.302 568.442 424.172 568.442Z" fill="#333333"/>
</svg>
